Coordinates
version=1
nRows=13
nColumns=40
inDegrees=yes

Units are S.I. units (second, meters, Newtons, ...)
If the header above contains a line with 'inDegrees', this indicates whether rotational values are in degrees (yes) or radians (no).

endheader
time	pelvis_tilt	pelvis_list	pelvis_rotation	pelvis_tx	pelvis_ty	pelvis_tz	hip_flexion_r	hip_adduction_r	hip_rotation_r	knee_angle_r	knee_angle_r_beta	ankle_angle_r	subtalar_angle_r	mtp_angle_r	hip_flexion_l	hip_adduction_l	hip_rotation_l	knee_angle_l	knee_angle_l_beta	ankle_angle_l	subtalar_angle_l	mtp_angle_l	lumbar_extension	lumbar_bending	lumbar_rotation	arm_flex_r	arm_add_r	arm_rot_r	elbow_flex_r	pro_sup_r	wrist_flex_r	wrist_dev_r	arm_flex_l	arm_add_l	arm_rot_l	elbow_flex_l	pro_sup_l	wrist_flex_l	wrist_dev_l
      4.14166667	     -7.80753317	     16.55922943	      4.81552322	     -0.25435530	      1.06397932	      0.26566775	     51.81997506	    -24.54792202	      6.27656304	     46.04636829	      0.80366074	     -0.87871460	      1.48498634	      0.00000000	     71.02518480	     -2.27190242	    -12.59349669	    114.91470838	      2.00564002	     21.21493094	     -0.45764849	      0.00000000	    -51.36926795	    -13.57097914	    -16.87266707	     89.60497806	    -13.89088350	     51.43059329	     28.19162058	     87.67473710	      0.00000000	      0.00000000	     89.86691412	     -4.13636036	     34.15252843	     33.40194386	     88.86715426	      0.00000000	      0.00000000
      4.15000000	     -8.13982667	     15.68972202	      5.44208860	     -0.25412957	      1.06292827	      0.26570715	     49.37011109	    -24.21869709	      4.65652371	     43.88715210	      0.76597530	     -2.24850653	      0.32072331	      0.00000000	     73.98674131	     -3.02778124	    -11.50130948	    117.01847451	      2.04235767	     22.25385482	      0.87729470	      0.00000000	    -50.81319483	    -12.75223983	    -16.50064031	     89.57183623	    -13.92975896	     51.81819094	     27.87528617	     87.58964284	      0.00000000	      0.00000000	     89.86287261	     -3.86865195	     34.14951140	     33.01065377	     88.86928752	      0.00000000	      0.00000000
      4.15833333	     -8.48062669	     15.78386209	      5.90481114	     -0.25375240	      1.06263967	      0.26530887	     47.53565371	    -24.64465865	      3.82505127	     42.17887266	      0.73616020	     -3.71974502	     -0.18689915	      0.00000000	     76.48199512	     -3.08596039	    -11.51706935	    118.38737149	      2.06624943	     23.15552121	      1.12658168	      0.00000000	    -50.52773006	    -12.71573784	    -16.85702930	     89.54342578	    -13.83627068	     52.18936666	     27.40794704	     87.58636565	      0.00000000	      0.00000000	     89.85944856	     -3.75978816	     34.29319133	     32.74969375	     88.86794413	      0.00000000	      0.00000000
      4.16666667	     -8.85738066	     16.07370919	      6.12639965	     -0.25341320	      1.06265045	      0.26509812	     46.04382608	    -24.99117103	      3.55851657	     40.87185963	      0.71334852	     -4.42303316	     -0.41160057	      0.00000000	     78.71549900	     -3.23831893	    -11.96476596	    119.25974154	      2.08147515	     24.06270218	      1.13508533	      0.00000000	    -50.27411612	    -12.98881525	    -17.19807963	     89.44992835	    -13.77174613	     52.23800490	     27.19663634	     87.56136896	      0.00000000	      0.00000000	     89.85602301	     -3.61727430	     34.32546205	     32.56962217	     88.87191615	      0.00000000	      0.00000000
      4.17500000	     -9.27320972	     16.17834626	      6.39032374	     -0.25329045	      1.06293557	      0.26468150	     44.72778545	    -25.24170208	      3.10610889	     39.89418236	      0.69628483	     -5.48427854	     -0.79359083	      0.00000000	     80.98317464	     -3.31196841	    -12.19001151	    119.55023345	      2.08654520	     24.62954660	      1.20702265	      0.00000000	    -49.95814758	    -13.05672341	    -17.40748469	     89.42688304	    -13.72254296	     52.38201651	     26.84922384	     87.55826663	      0.00000000	      0.00000000	     89.85510236	     -3.50899448	     34.43961617	     32.32692550	     88.88082156	      0.00000000	      0.00000000
      4.18333333	     -9.74128348	     16.06517090	      6.76330870	     -0.25329808	      1.06328860	      0.26424276	     43.67736541	    -25.35805012	      2.49504076	     39.52706607	      0.68987745	     -6.41522666	     -1.40040874	      0.00000000	     83.13517271	     -3.34527993	    -12.37018923	    119.45242374	      2.08483809	     25.14079335	      1.20129610	      0.00000000	    -49.56119912	    -12.89434983	    -17.50510844	     89.41905906	    -13.67411700	     52.54695369	     26.44437779	     87.59291928	      0.00000000	      0.00000000	     89.85340963	     -3.41819247	     34.59586493	     32.18093817	     88.90072639	      0.00000000	      0.00000000
      4.19166667	    -10.53930111	     15.00095893	      7.26690010	     -0.25401747	      1.06254515	      0.26409604	     43.26621312	    -24.46770601	      1.79753878	     40.04949091	      0.69899548	     -7.24203513	     -3.70414060	      0.00000000	     85.95686033	     -3.45932008	    -11.44636974	    119.20757424	      2.08056466	     25.27056354	      0.88085125	      0.00000000	    -48.53403204	    -12.00878342	    -16.93505387	     89.48437582	    -13.63216159	     53.16754890	     25.98641147	     87.41176182	      0.00000000	      0.00000000	     89.85193490	     -3.40164671	     35.01527228	     32.02540055	     88.86697149	      0.00000000	      0.00000000
      4.20000000	    -11.02260577	     14.95179870	      7.56746767	     -0.25443133	      1.06345596	      0.26347496	     42.77402015	    -24.53893243	      1.71074899	     40.64285516	      0.70935164	     -7.13913126	     -4.33254069	      0.00000000	     87.55246963	     -3.18959414	    -11.81347858	    118.13757298	      2.06188962	     25.55195889	      0.56913393	      0.00000000	    -48.20590030	    -11.86811627	    -17.09457611	     89.46762898	    -13.63302987	     53.09027060	     25.92950703	     87.42304000	      0.00000000	      0.00000000	     89.85260977	     -3.41046438	     35.08754552	     32.05150268	     88.86907260	      0.00000000	      0.00000000
      4.20833333	    -11.41586926	     14.81733132	      7.64837346	     -0.25488248	      1.06431760	      0.26316311	     42.59903310	    -24.40024333	      1.83494610	     41.90167195	      0.73132214	     -6.74109916	     -5.14096185	      0.00000000	     88.79552227	     -3.07253631	    -12.17871822	    116.77831312	      2.03816606	     25.60545860	     -0.04311790	      0.00000000	    -47.90523616	    -11.76441915	    -17.02169037	     89.45603681	    -13.67134966	     53.07493100	     25.91204129	     87.41628694	      0.00000000	      0.00000000	     89.85414870	     -3.43768683	     35.16904892	     32.18059936	     88.85771732	      0.00000000	      0.00000000
      4.21666667	    -12.28333475	     14.62675093	      7.66486690	     -0.25603350	      1.06505647	      0.26320529	     43.11350666	    -23.92206270	      2.64596836	     43.27068304	      0.75521589	     -6.17535701	     -6.48187812	      0.00000000	     90.21623268	     -3.15222835	    -12.48971382	    114.79269898	      2.00351055	     25.17482981	     -0.51890102	      0.00000000	    -47.20815266	    -11.82382947	    -16.84151503	     89.44937610	    -13.82802049	     53.05020786	     26.03792020	     87.39459457	      0.00000000	      0.00000000	     89.85612744	     -3.44353576	     35.26641642	     32.34118969	     88.86657850	      0.00000000	      0.00000000
      4.22500000	    -12.36140125	     14.31256984	      7.55975198	     -0.25655256	      1.06642765	      0.26313879	     43.16646280	    -23.53862667	      2.91676793	     45.45623906	      0.79336104	     -5.62345592	     -6.93140412	      0.00000000	     90.55335620	     -3.04030373	    -12.48445071	    112.72971997	      1.96750478	     25.39005863	     -0.91291219	      0.00000000	    -47.20492872	    -11.57877524	    -16.52605711	     89.51325774	    -13.95688304	     52.90286319	     26.20443525	     87.30441585	      0.00000000	      0.00000000	     89.85820387	     -3.45388847	     35.18575451	     32.64335621	     88.86017789	      0.00000000	      0.00000000
      4.23333333	    -13.33887687	     14.65458895	      7.38861632	     -0.25807653	      1.06627252	      0.26291040	     45.03718530	    -23.50260592	      4.49278283	     48.45965176	      0.84578048	     -4.52735569	     -8.06450546	      0.00000000	     91.32719074	     -2.91372735	    -13.33683866	    110.16983403	      1.92282634	     24.94698573	     -2.02801028	      0.00000000	    -46.42489823	    -12.13762902	    -16.60951315	     89.49446137	    -14.03641909	     52.85563988	     26.42168367	     87.42840183	      0.00000000	      0.00000000	     89.86154254	     -3.62852119	     35.53749190	     32.86025193	     88.86159745	      0.00000000	      0.00000000
      4.24166667	    -13.56927323	     14.52129915	      7.15169687	     -0.25899779	      1.06710135	      0.26305274	     45.98089575	    -23.14560232	      5.26171136	     51.54309174	      0.89959666	     -3.27267521	     -8.48836516	      0.00000000	     91.18453424	     -2.79977455	    -13.48176109	    107.20515288	      1.87108289	     24.24123097	     -2.01927015	      0.00000000	    -46.28707049	    -12.14617718	    -16.32734490	     89.51953555	    -14.16610969	     52.56702504	     26.76087166	     87.44421348	      0.00000000	      0.00000000	     89.86412893	     -3.69557392	     35.39677824	     33.15435183	     88.86656515	      0.00000000	      0.00000000
